<?xml version="1.0" standalone="no"?>
<!DOCTYPE svg PUBLIC "-//W3C//DTD SVG 20010904//EN"
 "http://www.w3.org/TR/2001/REC-SVG-20010904/DTD/svg10.dtd">
<svg version="1.0" xmlns="http://www.w3.org/2000/svg"
 width="139.000000pt" height="188.000000pt" viewBox="0 0 139.000000 188.000000"
 preserveAspectRatio="xMidYMid meet">

<g transform="translate(0.000000,188.000000) scale(0.100000,-0.100000)"
fill="#000000" stroke="none">
<path d="M540 1636 c-115 -22 -194 -69 -249 -150 -82 -120 -94 -394 -24 -543
29 -61 105 -132 175 -163 34 -15 174 -39 231 -40 4 0 7 -130 7 -290 l0 -290
55 0 55 0 0 144 0 144 48 21 c64 28 87 49 106 95 40 98 -7 213 -105 255 l-49
22 0 404 0 405 -92 -1 c-51 0 -122 -6 -158 -13z m140 -436 l0 -360 -38 0 c-20
0 -68 8 -105 19 -127 35 -172 122 -172 331 0 151 30 256 90 316 29 29 105 52
173 53 l52 1 0 -360z m182 -487 c25 -22 41 -70 33 -100 -7 -30 -69 -93 -91
-93 -11 0 -14 21 -14 111 l0 111 28 -7 c15 -3 34 -13 44 -22z"/>
</g>
</svg>
