<?xml version="1.0" standalone="no"?>
<!DOCTYPE svg PUBLIC "-//W3C//DTD SVG 20010904//EN"
 "http://www.w3.org/TR/2001/REC-SVG-20010904/DTD/svg10.dtd">
<svg version="1.0" xmlns="http://www.w3.org/2000/svg"
 width="108.000000pt" height="188.000000pt" viewBox="0 0 108.000000 188.000000"
 preserveAspectRatio="xMidYMid meet">

<g transform="translate(0.000000,188.000000) scale(0.100000,-0.100000)"
fill="#000000" stroke="none">
<path d="M363 1565 c-166 -45 -252 -145 -299 -350 -15 -64 -19 -119 -18 -270
0 -200 10 -271 54 -387 43 -116 161 -208 287 -224 29 -3 56 -10 59 -15 3 -5
-7 -48 -21 -95 -24 -80 -25 -87 -10 -110 34 -52 66 -19 105 106 l30 97 72 13
c40 7 95 21 123 31 l50 19 25 -25 c14 -14 48 -55 75 -92 65 -86 78 -94 107
-66 18 19 20 26 10 45 -18 33 -85 124 -117 158 l-28 29 30 38 c45 56 61 93 85
190 19 75 22 116 22 283 0 206 -10 275 -55 394 -45 122 -155 212 -288 236 -76
14 -237 11 -298 -5z m278 -121 c120 -36 172 -102 203 -256 34 -172 27 -426
-15 -552 -32 -96 -36 -97 -103 -16 -71 86 -97 106 -124 91 -20 -11 -25 -21
-80 -176 l-29 -80 -52 1 c-103 3 -193 78 -226 186 -25 86 -38 226 -32 363 11
277 74 400 224 441 67 18 169 17 234 -2z m47 -912 l35 -42 -34 -14 c-53 -21
-102 -28 -95 -13 2 6 13 36 22 65 10 29 22 51 28 49 5 -2 25 -22 44 -45z"/>
</g>
</svg>
